<svg width="48" height="46" viewBox="0 0 48 46" fill="none" xmlns="http://www.w3.org/2000/svg">
<g clip-path="url(#clip0)">
<path d="M48 22.9773C48 10.2859 37.2562 0 24 0C10.7438 0 0 10.2859 0 22.9773C0 34.448 8.775 43.953 20.25 45.6763V29.6192H14.1562V22.9773H20.25V17.9151C20.25 12.1573 23.8313 8.97551 29.3156 8.97551C31.9406 8.97551 34.6875 9.42428 34.6875 9.42428V15.0788H31.6594C28.6781 15.0788 27.75 16.8515 27.75 18.6691V22.9773H34.4062L33.3422 29.6192H27.75V45.6763C39.225 43.953 48 34.448 48 22.9773Z" fill="white"/>
</g>
<defs>
<clipPath id="clip0">
<rect width="48" height="45.9546" fill="white"/>
</clipPath>
</defs>
</svg>
