<svg width="48" height="46" viewBox="0 0 48 46" fill="none" xmlns="http://www.w3.org/2000/svg">
<path fill-rule="evenodd" clip-rule="evenodd" d="M24 0C10.7452 0 0 10.2873 0 22.9773C0 35.6673 10.7452 45.9546 24 45.9546C37.2548 45.9546 48 35.6673 48 22.9773C48 10.2873 37.2548 0 24 0ZM11.5216 19.0308H16.9605V34.6761H11.5216V19.0308ZM17.3188 14.1911C17.2835 12.657 16.1377 11.4886 14.277 11.4886C12.4164 11.4886 11.2 12.657 11.2 14.1911C11.2 15.6933 12.3805 16.8953 14.2064 16.8953H14.2412C16.1377 16.8953 17.3188 15.6933 17.3188 14.1911ZM30.3131 18.6634C33.8922 18.6634 36.5754 20.9 36.5754 25.7056L36.5752 34.6761H31.1365V26.3059C31.1365 24.2034 30.3494 22.7688 28.3805 22.7688C26.8779 22.7688 25.9829 23.736 25.5898 24.6701C25.446 25.0049 25.4107 25.4713 25.4107 25.9389V34.6766H19.9711C19.9711 34.6766 20.0428 20.4993 19.9711 19.0312H25.4107V21.2472C26.1325 20.182 27.4254 18.6634 30.3131 18.6634Z" fill="white"/>
</svg>
