<svg width="91" height="91" viewBox="0 0 91 91" fill="none" xmlns="http://www.w3.org/2000/svg">
<path d="M91 45.5C91 70.629 70.629 91 45.5 91C20.371 91 0 70.629 0 45.5C0 20.371 20.371 0 45.5 0C70.629 0 91 20.371 91 45.5Z" fill="#DFDFDF"/>
<path fill-rule="evenodd" clip-rule="evenodd" d="M82.0003 38.2757L72.7246 29V38.2757H82.0003ZM82.0003 40.5947H72.7246V61.4651H82.0003V40.5947Z" fill="#488ECA"/>
<path d="M29.8704 44.9084C31.7874 45.3413 33.3024 46.2997 34.4155 47.7839C35.5595 49.2371 36.1315 50.9067 36.1315 52.7928C36.1315 55.5755 35.173 57.7553 33.2561 59.3322C31.3391 60.909 28.6491 61.6975 25.1862 61.6975H9V29.0005H24.676C28.0153 29.0005 30.6279 29.7425 32.514 31.2267C34.431 32.7108 35.3895 34.7978 35.3895 37.4878C35.3895 39.4048 34.8793 41.0126 33.859 42.3112C32.8696 43.5789 31.5401 44.4446 29.8704 44.9084ZM18.0902 41.9865H22.6817C24.9697 41.9865 26.1137 41.0435 26.1137 39.1574C26.1137 37.2095 24.9697 36.2356 22.6817 36.2356H18.0902V41.9865ZM23.3774 54.3696C25.6654 54.3696 26.8094 53.4112 26.8094 51.4942C26.8094 50.5048 26.5002 49.7472 25.8818 49.2216C25.2944 48.696 24.4441 48.4332 23.331 48.4332H18.0902V54.3696H23.3774Z" fill="#488ECA"/>
<path d="M38.4512 45.6036C38.4512 42.388 39.1159 39.528 40.4455 37.0235C41.8059 34.4881 43.7229 32.5248 46.1964 31.1334C48.6699 29.7111 51.5145 29 54.7301 29C58.8114 29 62.2434 30.0976 65.0262 32.2929C67.8089 34.4572 69.6022 37.41 70.4061 41.1512H60.6202C60.0327 39.9145 59.2134 38.9714 58.1621 38.3221C57.1418 37.6728 55.9514 37.3482 54.591 37.3482C52.4885 37.3482 50.8034 38.1057 49.5357 39.6207C48.2989 41.1048 47.6805 43.0991 47.6805 45.6036C47.6805 48.1389 48.2989 50.1641 49.5357 51.6792C50.8034 53.1633 52.4885 53.9054 54.591 53.9054C55.9514 53.9054 57.1418 53.5807 58.1621 52.9314C59.2134 52.2821 60.0327 51.3391 60.6202 50.1023H70.4061C69.6022 53.8435 67.8089 56.8118 65.0262 59.007C62.2434 61.1714 58.8114 62.2535 54.7301 62.2535C51.5145 62.2535 48.6699 61.5579 46.1964 60.1665C43.7229 58.7442 41.8059 56.7808 40.4455 54.2764C39.1159 51.741 38.4512 48.8501 38.4512 45.6036Z" fill="#488ECA"/>
</svg>
