<svg width="48" height="46" viewBox="0 0 48 46" fill="none" xmlns="http://www.w3.org/2000/svg">
<path fill-rule="evenodd" clip-rule="evenodd" d="M48 22.9773C48 35.6673 37.2548 45.9546 24 45.9546C10.7452 45.9546 0 35.6673 0 22.9773C0 10.2873 10.7452 0 24 0C37.2548 0 48 10.2873 48 22.9773ZM16.0715 20.8725C13.6673 21.8774 11.1971 22.91 8.93825 24.1012L8.93809 24.1014C7.75861 24.9281 9.32638 25.5129 10.7971 26.0615C11.0309 26.1487 11.2622 26.235 11.4797 26.3212C11.6607 26.3744 11.8447 26.4306 12.0312 26.4874C13.6669 26.9864 15.4907 27.5427 17.0787 26.7058C19.6873 25.2712 22.149 23.6126 24.6089 21.9552C25.4148 21.4122 26.2205 20.8694 27.0311 20.3346C27.0691 20.3113 27.1119 20.2847 27.1588 20.2557C27.8493 19.8271 29.4024 18.8633 28.8279 20.1913C27.4695 21.6136 26.0144 22.8727 24.5515 24.1386C23.5655 24.9917 22.5759 25.848 21.6099 26.7594C20.7686 27.4139 19.8949 28.73 20.837 29.6465C23.0069 31.1008 25.2107 32.5199 27.4133 33.9381C28.13 34.3997 28.8466 34.8611 29.5618 35.3236C30.774 36.2502 32.6685 35.5007 32.935 34.0528C33.0535 33.3868 33.1725 32.7208 33.2915 32.0548C33.9491 28.3739 34.6069 24.6917 35.188 20.9988C35.267 20.4196 35.3565 19.8403 35.4461 19.2608C35.6632 17.8562 35.8806 16.4499 35.9485 15.0377C35.7735 13.6285 33.9887 13.9384 32.9955 14.2552C27.8903 16.1151 22.8361 18.1128 17.8019 20.1457C17.2316 20.3876 16.6535 20.6292 16.0715 20.8725Z" fill="white"/>
</svg>
