<svg width="48" height="46" viewBox="0 0 48 46" fill="none" xmlns="http://www.w3.org/2000/svg">
<path fill-rule="evenodd" clip-rule="evenodd" d="M24 0C10.7452 0 0 10.2873 0 22.9773C0 35.6673 10.7452 45.9546 24 45.9546C37.2548 45.9546 48 35.6673 48 22.9773C48 10.2873 37.2548 0 24 0ZM23.3316 19.4713L23.2812 18.6762C23.1301 16.6156 24.4563 14.7334 26.5548 14.0032C27.327 13.7436 28.6364 13.7111 29.4926 13.9383C29.8283 14.0356 30.4663 14.3602 30.9195 14.6522L31.7421 15.1877L32.6486 14.9118C33.1523 14.7658 33.8238 14.5224 34.1259 14.3602C34.4113 14.2141 34.6631 14.133 34.6631 14.1817C34.6631 14.4575 34.042 15.3986 33.5216 15.9178C32.8165 16.648 33.018 16.7129 34.4449 16.2261C35.3011 15.9503 35.3178 15.9503 35.15 16.2586C35.0492 16.4208 34.5288 16.9887 33.9748 17.508C33.0347 18.4004 32.9844 18.4978 32.9844 19.2441C32.9844 20.3962 32.4136 22.7976 31.8428 24.1119C30.7852 26.5782 28.5189 29.1257 26.2526 30.4075C23.063 32.2086 18.8157 32.6629 15.24 31.6082C14.0481 31.2513 12 30.3426 12 30.1804C12 30.1317 12.6211 30.0668 13.3766 30.0506C14.9546 30.0181 16.5326 29.5962 17.8756 28.8498L18.7822 28.3306L17.7413 27.9899C16.264 27.5031 14.9378 26.3835 14.6021 25.3288C14.5013 24.9881 14.5349 24.9719 15.475 24.9719L16.4487 24.9556L15.6261 24.5824C14.6524 24.1119 13.7627 23.3168 13.3262 22.5055C13.0073 21.9214 12.6044 20.4449 12.7219 20.3313C12.7554 20.2826 13.108 20.3799 13.5109 20.5098C14.6692 20.9154 14.8203 20.818 14.1488 20.1366C12.8897 18.9034 12.5036 17.0699 13.108 15.3337L13.3934 14.5549L14.5013 15.6096C16.7677 17.7351 19.4369 19.0008 22.4922 19.3739L23.3316 19.4713Z" fill="white"/>
</svg>
